<?xml version="1.0" standalone="no"?>
<!DOCTYPE svg PUBLIC "-//W3C//DTD SVG 20010904//EN"
 "http://www.w3.org/TR/2001/REC-SVG-20010904/DTD/svg10.dtd">
<svg version="1.0" xmlns="http://www.w3.org/2000/svg"
 width="300.000000pt" height="300.000000pt" viewBox="0 0 300.000000 300.000000"
 preserveAspectRatio="xMidYMid meet">
<metadata>
Created by potrace 1.10, written by Peter Selinger 2001-2011
</metadata>
<g transform="translate(0.000000,300.000000) scale(0.100000,-0.100000)"
fill="#e7e8ec" stroke="none">
<path d="M479 2645 c-349 -175 -468 -239 -472 -254 -7 -28 -4 -38 108 -427 54
-186 105 -347 113 -356 13 -16 36 -18 204 -18 l188 0 0 -709 c0 -701 0 -709
21 -735 l20 -26 839 0 839 0 20 26 c21 26 21 34 21 735 l0 709 188 0 c168 0
191 2 204 18 8 9 59 170 113 356 112 389 115 399 108 427 -4 15 -123 79 -475
255 l-469 234 -552 -1 -552 -1 -466 -233z m2021 -34 c245 -123 450 -227 457
-233 9 -7 8 -17 -2 -41 -7 -18 -54 -172 -104 -344 -50 -171 -96 -323 -103
-337 l-11 -26 -173 0 c-165 0 -174 -1 -199 -22 l-26 -23 -6 -705 c-4 -500 -9
-707 -17 -712 -17 -12 -1618 -9 -1636 2 -13 8 -15 99 -16 711 l0 702 -28 23
c-26 23 -33 24 -195 24 -147 0 -170 2 -183 18 -8 9 -57 161 -108 337 -51 176
-99 333 -107 348 -8 15 -11 32 -8 38 12 18 889 452 930 460 22 4 276 6 565 5
l525 -1 445 -224z"/>
<path d="M1014 2775 c-28 -28 -26 -50 12 -127 51 -102 183 -196 329 -233 235
-60 508 42 615 229 35 60 38 108 10 136 -19 19 -33 20 -480 20 l-461 0 -25
-25z m956 -33 c0 -10 -11 -41 -25 -69 -68 -135 -255 -233 -445 -233 -190 0
-377 98 -445 233 -47 95 -89 87 445 87 446 0 470 -1 470 -18z"/>
<path d="M502 2562 c-233 -117 -378 -196 -388 -210 -15 -21 -11 -40 61 -290
43 -147 82 -284 87 -304 6 -21 22 -49 36 -63 25 -25 26 -25 203 -25 148 0 180
-3 193 -16 14 -14 16 -92 16 -710 l0 -695 25 -24 24 -25 740 0 740 0 27 24 28
23 0 699 c1 385 5 705 9 712 6 9 56 12 193 12 184 0 185 0 208 25 16 17 47
110 110 328 86 295 88 305 72 330 -12 18 -125 79 -393 211 -206 102 -383 186
-393 186 -23 0 -40 -22 -83 -112 -180 -372 -867 -367 -1038 7 -39 84 -55 105
-83 104 -12 0 -189 -85 -394 -187z m418 121 c24 -91 106 -193 205 -259 28 -19
88 -48 135 -65 160 -59 376 -51 534 21 142 64 261 192 290 313 4 16 10 27 14
25 4 -2 176 -88 382 -191 206 -103 376 -191 378 -196 1 -4 -36 -139 -83 -300
-47 -160 -85 -298 -85 -306 0 -13 -30 -15 -200 -15 -187 0 -201 -1 -220 -20
-20 -20 -20 -33 -20 -735 l0 -715 -750 0 -750 0 0 713 c0 600 -2 716 -14 733
-13 17 -31 19 -216 24 l-202 5 -85 285 c-46 157 -85 297 -86 312 -2 26 12 34
373 216 206 104 378 189 382 190 4 1 12 -15 18 -35z"/>
</g>
</svg>
