 <svg  version="1.0" xmlns="http://www.w3.org/2000/svg"  width="300.000000pt" height="300.000000pt" viewBox="0 0 300.000000 300.000000"  preserveAspectRatio="xMidYMid meet">  <g transform="translate(0.000000,300.000000) scale(0.100000,-0.100000)" fill="#e7e9ec" stroke="none"> <path d="M78 2729 c-42 -21 -68 -63 -68 -106 l1 -28 22 30 c35 48 68 75 91 75 19 -1 19 -2 -5 -17 -42 -26 -59 -64 -59 -133 0 -95 36 -140 113 -140 18 0 39 -5 47 -10 13 -9 13 -10 -1 -10 -8 0 -25 -10 -37 -23 -21 -22 -22 -32 -22 -226 0 -132 -3 -200 -10 -196 -6 4 -10 85 -10 210 l0 204 -44 46 c-25 25 -54 58 -65 73 l-20 27 -1 -28 c0 -38 26 -80 61 -101 l29 -17 0 -829 c0 -565 4 -846 11 -882 28 -134 142 -285 259 -341 119 -57 117 -57 830 -57 556 0 665 2 715 15 170 44 298 159 356 321 19 50 23 91 29 269 6 178 10 218 27 262 43 108 105 162 347 299 87 50 158 98 191 131 72 70 116 161 122 250 5 81 -3 73 -46 -45 -32 -90 -82 -165 -134 -205 -18 -14 -94 -60 -168 -102 -74 -43 -152 -90 -174 -105 -65 -45 -134 -126 -168 -198 -31 -66 -31 -70 -38 -272 -4 -113 -13 -223 -19 -245 -44 -147 -149 -255 -298 -306 -69 -24 -58 -11 17 19 125 51 227 163 265 291 14 48 16 154 16 886 l0 832 -23 21 c-13 12 -29 22 -36 22 -7 0 -9 5 -6 10 3 6 25 10 48 10 42 0 79 18 104 50 7 9 12 46 12 90 0 79 -8 97 -59 133 -23 16 -23 17 -4 17 11 0 32 -12 47 -28 24 -25 26 -34 28 -120 l1 -92 -46 -50 -46 -49 0 -80 c0 -76 1 -80 31 -105 l31 -26 -31 -26 c-27 -22 -31 -33 -31 -73 0 -37 5 -52 23 -69 13 -12 29 -22 35 -22 7 0 12 -4 12 -10 0 -5 -6 -10 -13 -10 -8 0 -23 -10 -35 -23 -21 -22 -22 -33 -22 -193 0 -157 2 -172 20 -192 32 -34 9 -43 285 117 107 62 128 81 155 136 27 56 26 106 -3 133 -13 12 -29 22 -35 22 -7 0 -12 4 -12 9 0 12 50 4 67 -11 17 -14 17 -119 -1 -161 -19 -46 -69 -86 -188 -152 -120 -67 -210 -129 -256 -176 -29 -30 -32 -39 -32 -94 0 -66 18 -105 50 -105 10 0 38 17 62 38 51 43 125 91 294 190 135 79 195 137 241 230 24 51 28 68 28 157 0 91 -3 104 -27 145 -36 62 -76 97 -134 120 -27 10 -40 19 -29 19 33 1 119 -44 146 -76 14 -17 30 -43 36 -59 6 -16 22 -56 34 -89 24 -60 24 -60 27 -25 10 100 -51 209 -148 264 l-55 31 -242 3 -243 3 0 79 c0 77 1 80 28 94 49 25 72 82 72 177 0 99 -23 150 -80 180 -33 18 -82 19 -1120 19 -1060 -1 -1086 -1 -1122 -21z m2206 -95 c22 -22 22 -146 0 -168 -14 -14 -126 -16 -1084 -16 -958 0 -1070 2 -1084 16 -22 22 -22 146 0 168 14 14 126 16 1084 16 958 0 1070 -2 1084 -16z m-86 -1131 l-3 -848 -32 -67 c-44 -93 -100 -151 -191 -196 l-76 -37 -675 -3 c-664 -3 -677 -2 -742 18 -120 39 -219 136 -258 257 -21 62 -21 78 -21 893 l0 830 1000 0 1000 0 -2 -847z m593 574 c153 -81 139 -359 -24 -487 -14 -11 -85 -54 -159 -96 -145 -83 -271 -172 -288 -204 -19 -36 -25 -21 -22 53 l3 72 72 51 c40 28 126 82 192 119 185 104 229 156 230 276 0 74 -15 111 -52 128 -15 7 -101 11 -233 11 l-210 0 0 50 0 50 223 0 c215 0 226 -1 268 -23z m-91 -207 c0 -40 -22 -90 -51 -116 -13 -12 -73 -50 -134 -84 -60 -35 -131 -78 -158 -96 -26 -19 -49 -34 -52 -34 -3 0 -5 81 -5 180 l0 180 200 0 200 0 0 -30z m-2517 -1270 c43 -110 148 -217 263 -266 33 -14 46 -23 29 -19 -109 21 -233 126 -288 242 l-32 68 -1 230 -1 230 7 -220 c5 -172 10 -230 23 -265z"/> <path d="M316 2234 c-13 -12 -16 -40 -16 -134 0 -125 8 -150 50 -150 42 0 50 25 50 150 0 125 -8 150 -50 150 -10 0 -26 -7 -34 -16z"/> <path d="M316 1834 c-14 -14 -16 -69 -16 -459 0 -390 2 -445 16 -459 20 -20 48 -20 68 0 14 14 16 69 16 459 0 390 -2 445 -16 459 -8 9 -24 16 -34 16 -10 0 -26 -7 -34 -16z"/> <path d="M315 783 c-39 -38 11 -191 82 -254 73 -63 202 -99 236 -64 38 38 16 75 -52 86 -100 15 -164 80 -180 179 -11 69 -48 92 -86 53z m112 -196 c21 -21 54 -47 73 -57 47 -25 20 -25 -29 0 -48 24 -95 79 -110 129 -19 64 -12 80 9 21 11 -30 37 -71 57 -93z"/> </g> </svg> 