<?xml version="1.0" standalone="no"?>
<!DOCTYPE svg PUBLIC "-//W3C//DTD SVG 20010904//EN"
 "http://www.w3.org/TR/2001/REC-SVG-20010904/DTD/svg10.dtd">
<svg version="1.0" xmlns="http://www.w3.org/2000/svg"
 width="300.000000pt" height="300.000000pt" viewBox="0 0 300.000000 300.000000"
 preserveAspectRatio="xMidYMid meet">
<metadata>
Created by potrace 1.10, written by Peter Selinger 2001-2011
</metadata>
<g transform="translate(0.000000,300.000000) scale(0.100000,-0.100000)"
fill="#e7e9ec" stroke="none">
<path d="M860 2980 c20 -15 21 -18 5 -23 -9 -4 -28 -7 -42 -7 -25 0 -26 0 -8
20 18 20 17 20 -17 20 -104 0 -225 -92 -266 -203 -59 -157 1 -328 145 -409 30
-17 52 -35 49 -42 -68 -161 -93 -346 -62 -466 32 -127 112 -249 201 -308 l48
-32 -34 -12 c-50 -17 -185 -87 -254 -133 -33 -21 -103 -82 -156 -134 -76 -77
-103 -112 -135 -175 -36 -73 -39 -87 -39 -160 0 -70 4 -87 27 -128 15 -25 39
-55 53 -65 l26 -18 -21 -48 c-67 -151 -14 -342 135 -493 87 -87 195 -145 283
-152 l57 -5 -25 21 -25 21 54 1 54 0 -19 -21 -19 -22 56 6 c93 9 191 69 244
149 16 24 30 44 30 45 0 1 37 -4 80 -12 44 -8 144 -14 223 -15 129 0 144 2
162 20 22 22 24 29 10 50 -8 12 -39 15 -167 16 -129 1 -260 14 -268 27 -1 1 0
21 3 45 3 35 7 42 21 37 48 -18 236 -28 339 -17 59 6 114 14 123 17 13 5 17
-4 22 -44 18 -155 166 -303 316 -318 l56 -6 -19 22 -19 21 54 0 54 -1 -25 -21
-25 -21 57 5 c88 7 196 65 283 152 149 150 202 342 135 492 l-20 47 33 31 c56
52 72 91 72 182 0 73 -3 87 -38 157 -28 56 -62 102 -124 168 -77 80 -90 90
-117 87 -26 -2 -32 -8 -34 -31 -3 -22 7 -36 53 -79 67 -61 139 -160 160 -218
29 -81 16 -159 -33 -203 -20 -18 -22 -18 -75 22 -65 50 -149 81 -214 81 l-48
0 -23 111 c-26 128 -72 276 -113 368 -16 35 -29 65 -29 67 0 2 52 -22 116 -54
l116 -57 19 24 c17 21 18 27 6 45 -14 21 -141 92 -207 115 -33 12 -34 13 -14
24 88 51 178 166 216 275 19 57 23 86 22 192 0 114 -3 134 -33 220 -18 52 -35
100 -37 107 -3 7 16 23 44 37 143 72 209 255 150 413 -28 76 -113 163 -182
186 -60 20 -126 23 -108 5 21 -21 13 -29 -29 -26 l-40 3 26 21 26 20 -58 -6
c-33 -4 -74 -15 -92 -25 -49 -25 -120 -94 -142 -137 l-19 -38 -49 20 c-75 29
-200 51 -272 48 l-64 -3 0 -35 0 -35 70 -8 c117 -13 236 -45 313 -83 165 -81
331 -305 393 -530 17 -62 20 -98 17 -184 -3 -99 -6 -112 -41 -182 -51 -105
-136 -183 -263 -244 -53 -25 -97 -44 -100 -42 -2 3 6 22 17 44 63 119 -46 330
-211 408 -58 28 -75 31 -160 31 -86 0 -101 -3 -160 -31 -165 -79 -273 -289
-211 -408 11 -22 19 -41 17 -44 -3 -2 -47 17 -100 42 -127 61 -212 139 -263
244 -35 70 -38 83 -41 182 -3 85 0 122 16 181 44 160 131 309 247 424 79 78
154 122 263 155 77 23 95 41 81 78 -11 29 -43 28 -132 -2 l-68 -23 -19 36
c-21 43 -93 112 -141 136 -18 10 -60 21 -92 25 -57 6 -58 6 -37 -10z m80 -91
c52 -24 83 -50 112 -98 l22 -34 -35 -26 c-72 -54 -166 -153 -214 -225 -27 -42
-55 -76 -61 -76 -30 0 -109 68 -138 119 -113 203 102 436 314 340z m1315 2
c96 -44 147 -122 148 -227 1 -80 -39 -155 -107 -201 -27 -18 -54 -33 -61 -33
-7 0 -29 28 -50 62 -39 62 -162 194 -224 239 l-35 26 22 34 c29 48 60 74 112
98 57 26 141 27 195 2z m-1107 -139 c2 -6 -10 -18 -27 -26 -36 -19 -50 -21
-33 -4 7 7 12 25 12 41 0 28 1 29 22 15 12 -8 24 -20 26 -26z m749 16 c0 -13
3 -31 8 -42 8 -17 6 -17 -24 -2 -37 20 -39 30 -9 50 28 20 26 20 25 -6z
m-1094 -384 l-26 -46 -17 22 c-17 23 -17 24 24 45 22 12 42 23 43 24 1 0 -10
-20 -24 -45z m1413 15 c3 -6 15 -9 25 -6 24 6 24 -4 1 -33 -20 -24 -33 -16
-46 28 -8 23 7 31 20 11z m-851 -489 c-11 -12 -16 -29 -13 -45 5 -25 5 -25
-18 -10 -13 8 -30 15 -39 15 -22 0 -9 18 29 41 42 26 65 26 41 -1z m304 6 c15
-8 33 -22 40 -30 12 -14 10 -16 -7 -16 -11 0 -25 -7 -32 -15 -19 -23 -27 -18
-22 14 2 16 -1 32 -7 35 -11 7 -15 26 -6 26 4 0 18 -6 34 -14z m-80 -17 c38
-13 38 -18 4 -51 -36 -35 -79 -50 -115 -42 -29 6 -98 59 -98 74 0 26 149 40
209 19z m-229 -127 c8 -7 34 -22 58 -33 l42 -20 0 -126 0 -126 -49 6 c-70 8
-146 43 -181 84 -24 27 -30 43 -30 81 0 56 30 125 72 169 l31 32 21 -27 c11
-15 27 -33 36 -40z m416 -37 c35 -73 32 -135 -6 -178 -35 -41 -111 -76 -181
-84 l-49 -6 0 126 0 126 43 19 c42 19 107 77 107 96 0 21 64 -52 86 -99z
m-246 16 c0 -5 -7 -14 -15 -21 -12 -10 -18 -10 -30 0 -23 19 -18 30 15 30 17
0 30 -4 30 -9z m-496 -242 c5 -5 2 -11 -8 -15 -9 -4 -27 -22 -40 -41 l-23 -34
-17 26 c-9 14 -23 25 -31 25 -19 0 -19 5 1 36 14 20 15 30 5 50 l-11 26 57
-33 c32 -17 62 -36 67 -40z m1044 46 c-9 -19 -8 -29 6 -49 20 -31 20 -36 1
-36 -8 0 -22 -11 -31 -25 l-17 -26 -18 28 c-10 15 -28 35 -40 44 -21 16 -20
16 42 52 35 20 65 36 66 37 2 0 -2 -11 -9 -25z m-862 -36 c16 -17 54 -44 84
-59 64 -34 54 -36 -61 -14 -96 18 -109 26 -86 52 9 10 17 26 17 35 0 25 13 21
46 -14z m614 14 c0 -9 8 -25 17 -35 23 -26 10 -34 -86 -52 -115 -22 -125 -20
-61 14 30 15 68 42 84 59 33 35 46 39 46 14z m-308 -80 c27 -25 22 -33 -22
-33 -44 0 -48 5 -23 32 20 22 22 22 45 1z m-407 -18 c215 -73 555 -72 771 0
41 14 79 23 84 20 4 -3 28 -56 53 -118 47 -118 89 -257 111 -376 l14 -71 -49
-21 c-26 -12 -51 -22 -55 -23 -4 0 -13 23 -21 53 -50 197 -238 362 -446 392
-266 39 -535 -137 -600 -392 -8 -30 -17 -53 -21 -53 -4 1 -29 12 -57 23 -42
18 -48 25 -44 44 2 12 11 53 20 90 17 78 9 107 -29 107 -35 0 -44 -17 -63
-118 l-17 -92 -48 0 c-66 0 -150 -31 -215 -81 -53 -40 -55 -40 -75 -22 -121
110 -7 346 249 516 86 57 258 143 250 125 -78 -174 -89 -230 -48 -241 31 -8
48 12 75 83 33 88 74 180 80 180 3 0 39 -11 81 -25z m498 -240 c84 -22 134
-51 203 -117 68 -65 115 -148 133 -237 l12 -54 -36 -30 c-52 -43 -128 -155
-150 -223 -11 -32 -24 -62 -29 -66 -17 -12 -157 -28 -246 -28 -89 0 -229 16
-246 28 -5 4 -17 32 -28 62 -23 68 -93 176 -146 224 l-40 36 11 52 c26 124
129 262 237 317 97 50 220 63 325 36z m-787 -312 c20 -27 17 -33 -14 -33 -38
0 -46 9 -25 32 20 22 23 22 39 1z m1388 -2 c15 -17 15 -19 1 -25 -20 -7 -55
-8 -55 -1 0 9 25 45 31 45 3 0 14 -8 23 -19z m-1533 -64 l-16 -34 -26 21 c-31
25 -29 33 14 44 43 12 47 8 28 -31z m1692 21 c16 -8 15 -11 -10 -32 l-27 -23
-18 36 c-10 19 -18 37 -18 38 0 5 53 -9 73 -19z m-1363 -27 c0 -16 3 -37 7
-46 5 -15 3 -16 -13 -7 -10 6 -28 17 -39 25 -19 15 -19 15 5 36 34 27 40 26
40 -8z m1020 8 c24 -21 24 -21 5 -36 -11 -8 -29 -19 -39 -25 -16 -9 -18 -8
-13 7 4 9 7 30 7 46 0 34 6 35 40 8z m-1215 -14 c86 -23 147 -60 218 -134 161
-166 177 -359 41 -493 -62 -62 -115 -83 -214 -83 -77 0 -93 3 -153 33 -141 70
-254 221 -264 356 -3 37 -3 66 1 66 3 0 28 -16 55 -35 51 -37 79 -43 99 -23
29 29 13 55 -58 100 -38 24 -69 48 -70 54 0 16 79 104 113 125 l30 17 48 -74
c51 -77 72 -89 103 -58 23 23 20 35 -24 98 -22 31 -40 59 -40 61 0 10 58 4
115 -10z m1485 10 c0 -2 -18 -30 -40 -61 -44 -63 -47 -75 -24 -98 31 -31 52
-19 103 58 l48 74 30 -17 c34 -21 113 -109 113 -125 -1 -6 -32 -30 -70 -54
-71 -45 -87 -71 -58 -100 20 -20 48 -14 99 23 27 19 52 35 55 35 4 0 4 -29 1
-66 -15 -187 -208 -378 -396 -392 -93 -6 -156 15 -225 79 -71 65 -100 130 -99
225 0 97 39 181 128 273 72 74 133 113 216 135 53 14 119 21 119 11z m-1832
-97 c-10 -16 -21 -28 -23 -28 -2 0 -10 13 -18 29 l-14 28 37 -1 38 -1 -20 -27z
m2113 18 c-5 -6 -11 -23 -13 -38 l-3 -27 -26 37 -27 37 39 1 c28 1 37 -2 30
-10z m-2111 -148 c0 -5 -8 -8 -17 -8 -9 0 -25 -7 -35 -17 -17 -15 -18 -15 -18
10 0 14 5 38 12 52 l12 26 22 -28 c13 -15 23 -31 24 -35z m2127 1 c6 -43 5
-43 -13 -28 -10 10 -27 19 -36 20 -16 4 -16 7 4 37 25 40 37 32 45 -29z
m-1359 -152 l22 -24 -20 -18 c-24 -22 -26 -20 -35 28 -8 43 2 47 33 14z m556
-14 c-9 -49 -10 -50 -34 -28 l-20 18 22 24 c31 33 40 29 32 -14z m-565 -167
c-24 -16 -59 -36 -63 -36 -7 0 14 49 27 68 8 10 13 8 24 -8 8 -12 13 -22 12
-24z"/>
<path d="M1392 908 c-21 -21 -13 -55 19 -82 l31 -26 -31 -29 c-32 -30 -39 -59
-19 -79 21 -21 55 -13 82 19 l26 31 26 -31 c27 -32 61 -40 82 -19 20 20 14 49
-18 78 l-29 27 29 28 c31 30 38 63 18 83 -20 20 -48 13 -79 -20 l-29 -32 -29
32 c-31 33 -59 40 -79 20z m132 -70 c24 11 24 10 15 -18 -7 -20 -7 -35 1 -49
10 -19 9 -20 -15 -11 -18 7 -33 7 -45 0 -28 -15 -30 -13 -20 15 6 16 6 34 0
50 -9 23 -8 24 15 13 18 -8 31 -8 49 0z"/>
<path d="M815 568 c-199 -70 -169 -359 39 -376 100 -8 181 50 206 149 17 66
-1 122 -54 175 -57 57 -124 75 -191 52z m131 -109 c47 -44 40 -130 -13 -165
-83 -54 -193 29 -162 123 23 70 120 94 175 42z"/>
<path d="M2065 565 c-53 -19 -111 -82 -125 -135 -23 -87 25 -186 108 -222 131
-58 272 34 272 178 -1 128 -135 223 -255 179z m121 -94 c44 -27 60 -77 40
-124 -50 -121 -226 -71 -202 56 14 74 96 108 162 68z"/>
<path d="M1212 2168 c-7 -7 -12 -40 -12 -80 0 -57 3 -69 20 -78 25 -13 60 3
61 28 3 73 -1 114 -11 127 -15 18 -42 19 -58 3z"/>
<path d="M1728 2161 c-21 -29 -11 -139 13 -151 13 -8 25 -7 39 0 17 9 20 21
20 78 0 40 -5 73 -12 80 -18 18 -45 15 -60 -7z"/>
</g>
</svg>
